<svg xmlns="http://www.w3.org/2000/svg" xmlns:xlink="http://www.w3.org/1999/xlink" id="Layer_1" width="240" height="39" x="0" y="0" enable-background="new 0 0 240 39" version="1.1" viewBox="0 0 240 39" xml:space="preserve"><g><path fill="#FFF" d="M49.044,71.141c-7.725-0.004-15.785,1.736-23.92,3.993c-1.033,0.208-2.041,0.884-2.574,1.72 c-0.49,0.788-0.668,1.579-0.821,2.408c-0.79,4.428-0.694,8.775-0.53,13.594c0.036,1.104,0.2,2.41,0.715,3.205 c0.538,0.803,1.46,1.313,2.561,1.48c1.407,0.206,2.818,0.381,4.232,0.525l-0.312,8.697c-0.048,0.691,0.29,1.268,0.71,1.598 c0.376,0.286,0.795,0.414,1.225,0.445c0.86,0.064,1.869-0.303,2.37-1.257c2.195-4.224,3.572-6.089,6.317-8.896 c7.158,0.176,13.407-0.222,20.482-0.744c2.501-0.065,4.218-2.11,4.672-3.744c1.357-4.231,1.568-9.455,1.712-14.736 c0.061-2.093-0.665-4.148-1.95-5.234c-1.222-0.99-2.702-1.35-4.058-1.718C56.108,71.625,52.34,71.166,49.044,71.141z M59.334,74.451c1.358,0.369,2.555,0.724,3.31,1.336c1.26,1.34,1.218,2.23,1.2,3.676c-0.142,5.122-0.388,10.093-1.544,13.859 c-0.498,1.405-1.366,2.405-3.006,2.557c-7.208,0.533-13.462,0.945-20.707,0.738c-0.285-0.009-0.561,0.101-0.763,0.303 c-3.044,3.074-4.601,5.21-6.921,9.676c-0.054,0.102-0.171,0.164-0.315,0.175c-0.097-0.005-0.136-0.079-0.142-0.147l0.314-9.432 c0.019-0.51-0.401-0.996-0.907-1.051c-1.692-0.162-3.379-0.368-5.06-0.62c-0.726-0.11-0.994-0.31-1.193-0.606 c-0.346-0.824-0.338-1.334-0.365-2.127c-0.162-4.775-0.242-8.948,0.491-13.101c0.068-0.614,0.298-1.241,0.542-1.767 c0.404-0.633,1.023-0.725,1.644-0.897c7.956-2.196,15.74-3.84,23.068-3.845C52.572,73.308,56.344,73.668,59.334,74.451 L59.334,74.451z M31.855,82.541c-1.096,1.313-0.987,3.096-0.14,4.289c0.442,0.625,1.132,1.129,1.972,1.242 c1.091,0.09,1.783-0.352,2.53-0.859c1.353-1.176,1.49-3.229,0.461-4.71c-0.524-0.755-1.362-1.208-2.218-1.24 c-1.172,0.013-1.968,0.535-2.605,1.276V82.541z M43.711,81.469c-1.092,0.035-1.975,0.791-2.514,1.607 c-0.617,0.933-0.977,2.101-0.478,3.246c0.96,2.203,4.277,2.176,5.6-0.063c0.61-1.032,0.454-2.205,0-3.056 c-0.452-0.851-1.136-1.543-2.131-1.702C44.031,81.475,43.871,81.464,43.711,81.469z M53.336,81.676 c-0.34-0.008-0.69,0.023-1.018,0.111c-1.312,0.35-2.429,1.703-2.26,3.437c0.086,0.872,0.487,1.722,1.21,2.308 s1.773,0.848,2.88,0.621c1.272-0.261,2.06-1.285,2.323-2.275s0.197-1.999-0.414-2.817C55.413,82.203,54.409,81.692,53.336,81.676 L53.336,81.676z M34.371,83.299c0.245,0.002,0.438,0.08,0.637,0.365c0.445,0.643,0.321,1.615-0.128,2.006 c-0.447,0.39-0.726,0.424-0.922,0.398c-0.196-0.027-0.395-0.162-0.573-0.414c-0.34-0.48-0.44-1.257,0.007-1.811 C33.63,83.527,34.067,83.33,34.371,83.299L34.371,83.299z M43.854,83.521c0.038,0.006,0.464,0.254,0.668,0.637 c0.204,0.383,0.242,0.738,0.048,1.065c-0.577,0.976-1.804,0.712-1.99,0.287c-0.07-0.162-0.017-0.813,0.32-1.319 C43.235,83.682,43.657,83.49,43.854,83.521L43.854,83.521z M54.418,84.27c0.062,0.083,0.213,0.641,0.096,1.082 c-0.118,0.442-0.31,0.715-0.78,0.811c-0.602,0.125-0.94,0-1.193-0.207c-0.254-0.204-0.425-0.551-0.462-0.922 c-0.09-0.92,0.24-1.133,0.764-1.273C53.453,83.609,54.143,83.871,54.418,84.27z"/><path fill="#FFF" d="M78.687,75.258c0.016-0.26,0.111-0.494,0.287-0.701c0.174-0.205,0.432-0.32,0.701-0.311h6.826 c0.23,0,0.467,0.097,0.712,0.287c0.233,0.168,0.371,0.438,0.368,0.725V86.15h11.421V75.258c0-0.275,0.096-0.514,0.287-0.712 c0.192-0.2,0.44-0.3,0.747-0.3h6.734c0.306,0,0.574,0.076,0.804,0.229c0.23,0.154,0.345,0.399,0.345,0.736v32.149 c0,0.338-0.1,0.59-0.3,0.758c-0.198,0.17-0.459,0.254-0.78,0.254h-6.803c-0.306,0-0.555-0.084-0.747-0.254 c-0.191-0.168-0.287-0.42-0.287-0.758V94.309H87.581v13.053c0,0.322-0.104,0.57-0.31,0.748c-0.207,0.176-0.487,0.264-0.84,0.264 h-6.756c-0.643,0-0.972-0.299-0.988-0.896V75.258z M141.562,107.982c-0.198,0.168-0.409,0.275-0.631,0.321 c-0.208,0.045-0.42,0.068-0.631,0.069h-3.471c-0.275,0-0.514-0.049-0.713-0.149c-0.2-0.101-0.368-0.233-0.506-0.401 c-0.142-0.176-0.258-0.369-0.344-0.576c-0.094-0.215-0.17-0.438-0.23-0.666l-0.712-2.941c-0.229,0.475-0.563,1.016-1,1.62 c-0.473,0.642-1.034,1.214-1.666,1.7c-0.674,0.529-1.479,0.974-2.413,1.334c-0.936,0.359-2.007,0.539-3.218,0.539 c-1.746,0-3.332-0.336-4.758-1.01c-1.395-0.652-2.636-1.592-3.642-2.759c-1.003-1.163-1.781-2.524-2.332-4.079 c-0.552-1.555-0.828-3.214-0.828-4.975V80.957c0-0.582,0.127-1.022,0.38-1.321c0.252-0.299,0.654-0.448,1.206-0.448h5.308 c0.66,0,1.111,0.11,1.355,0.333c0.245,0.222,0.368,0.655,0.368,1.298v14.961c0,0.659,0.15,1.283,0.448,1.873 c0.299,0.59,0.693,1.11,1.184,1.563c0.49,0.451,1.045,0.809,1.666,1.068c0.62,0.261,1.252,0.391,1.896,0.391 c0.551,0,1.122-0.13,1.712-0.391c0.594-0.263,1.144-0.615,1.631-1.045c0.498-0.437,0.908-0.951,1.229-1.541 c0.322-0.59,0.482-1.213,0.482-1.871V80.888c0-0.26,0.051-0.521,0.15-0.78c0.1-0.261,0.249-0.461,0.447-0.599 c0.199-0.122,0.388-0.206,0.563-0.252c0.177-0.046,0.38-0.07,0.608-0.07h5.195c0.657,0,1.133,0.162,1.424,0.483 c0.291,0.322,0.437,0.751,0.437,1.287v25.716c0,0.29-0.065,0.56-0.194,0.804c-0.131,0.245-0.311,0.438-0.541,0.574L141.562,107.982 L141.562,107.982z M168.243,104.811c-0.414,0.414-0.87,0.858-1.367,1.333c-0.498,0.476-1.046,0.92-1.643,1.333 c-0.602,0.416-1.249,0.76-1.93,1.023c-0.713,0.271-1.469,0.408-2.23,0.402c-2.083,0-4.002-0.391-5.758-1.173 c-1.71-0.751-3.25-1.841-4.526-3.206c-1.264-1.355-2.252-2.953-2.964-4.791c-0.713-1.839-1.068-3.814-1.068-5.93 c0-2.13,0.355-4.109,1.068-5.939c0.712-1.83,1.7-3.425,2.964-4.781c1.274-1.363,2.815-2.449,4.526-3.193 c1.756-0.773,3.675-1.161,5.758-1.161c0.843,0,1.613,0.123,2.311,0.368c0.672,0.232,1.313,0.549,1.906,0.941 c0.575,0.384,1.104,0.816,1.586,1.299s0.938,0.953,1.367,1.414V72.246c0-0.489,0.15-0.902,0.447-1.239 c0.3-0.338,0.748-0.506,1.346-0.506h5.17c0.2,0,0.41,0.042,0.633,0.126c0.221,0.085,0.424,0.203,0.609,0.357 c0.184,0.152,0.332,0.336,0.447,0.551s0.173,0.451,0.173,0.711v34.357c0,1.18-0.62,1.77-1.862,1.77h-4.504 c-0.307,0-0.544-0.039-0.712-0.115c-0.167-0.075-0.313-0.189-0.427-0.333c-0.127-0.169-0.231-0.354-0.309-0.552 c-0.109-0.259-0.224-0.516-0.345-0.77L168.243,104.811L168.243,104.811z M155.029,93.803c-0.008,0.967,0.151,1.927,0.471,2.839 c0.313,0.88,0.763,1.644,1.345,2.286c0.589,0.648,1.305,1.168,2.103,1.527c0.819,0.377,1.728,0.563,2.724,0.563 c0.98,0,1.903-0.176,2.77-0.528c0.841-0.336,1.609-0.832,2.263-1.459c0.649-0.629,1.176-1.373,1.552-2.194 c0.391-0.843,0.609-1.747,0.655-2.712v-0.322c0.003-0.962-0.185-1.914-0.552-2.803c-0.356-0.871-0.875-1.667-1.528-2.344 c-0.655-0.678-1.436-1.22-2.298-1.598c-0.902-0.395-1.877-0.595-2.861-0.586c-0.996,0-1.904,0.195-2.724,0.586 c-0.82,0.391-1.521,0.924-2.103,1.598c-0.592,0.689-1.047,1.484-1.345,2.344C155.185,91.9,155.025,92.849,155.029,93.803 L155.029,93.803z M203.749,104.811c-0.414,0.414-0.87,0.858-1.367,1.333c-0.498,0.476-1.047,0.92-1.644,1.333 c-0.601,0.416-1.249,0.76-1.931,1.023c-0.711,0.271-1.468,0.408-2.229,0.402c-2.083,0-4.002-0.391-5.756-1.173 c-1.712-0.751-3.252-1.841-4.528-3.206c-1.263-1.355-2.252-2.953-2.964-4.791c-0.712-1.839-1.069-3.814-1.069-5.93 c0-2.13,0.357-4.109,1.069-5.939s1.7-3.425,2.964-4.781c1.275-1.363,2.816-2.449,4.528-3.193c1.754-0.773,3.673-1.161,5.756-1.161 c0.843,0,1.613,0.123,2.31,0.368c0.673,0.232,1.313,0.549,1.907,0.941c0.575,0.384,1.103,0.816,1.587,1.299 c0.482,0.482,0.938,0.953,1.366,1.414V72.246c0-0.489,0.149-0.902,0.448-1.239c0.3-0.338,0.747-0.506,1.345-0.506h5.17 c0.2,0,0.41,0.042,0.632,0.126c0.224,0.085,0.426,0.203,0.61,0.357c0.183,0.152,0.333,0.336,0.448,0.551 c0.113,0.215,0.172,0.451,0.172,0.711v34.357c0,1.18-0.62,1.77-1.862,1.77h-4.504c-0.306,0-0.544-0.039-0.712-0.115 c-0.166-0.075-0.313-0.189-0.425-0.333c-0.128-0.169-0.232-0.354-0.31-0.552c-0.109-0.259-0.225-0.516-0.346-0.77L203.749,104.811 L203.749,104.811z M190.534,93.803c-0.008,0.967,0.152,1.927,0.471,2.839c0.315,0.88,0.764,1.644,1.346,2.286 c0.588,0.648,1.305,1.168,2.103,1.527c0.819,0.377,1.728,0.563,2.724,0.563c0.979,0,1.902-0.176,2.769-0.528 c0.841-0.336,1.61-0.832,2.264-1.459c0.649-0.629,1.175-1.373,1.55-2.194c0.392-0.843,0.61-1.747,0.656-2.712v-0.322 c0.004-0.962-0.184-1.914-0.552-2.803c-0.356-0.871-0.875-1.667-1.528-2.344c-0.654-0.678-1.436-1.22-2.298-1.598 c-0.901-0.395-1.876-0.595-2.86-0.586c-0.996,0-1.904,0.195-2.724,0.586s-1.521,0.924-2.103,1.598 c-0.592,0.689-1.049,1.484-1.346,2.344C190.689,91.9,190.53,92.849,190.534,93.803L190.534,93.803z M218.687,72.27 c0-0.49,0.123-0.902,0.367-1.24c0.246-0.338,0.668-0.506,1.265-0.506h5.63c0.154,0,0.314,0.043,0.482,0.127 c0.178,0.09,0.336,0.211,0.472,0.356c0.146,0.153,0.268,0.337,0.368,0.551c0.1,0.215,0.149,0.452,0.149,0.712v34.334 c0,0.582-0.165,1.022-0.495,1.321c-0.328,0.299-0.754,0.448-1.274,0.448h-5.332c-0.597,0-1.019-0.15-1.265-0.448 c-0.244-0.299-0.367-0.74-0.367-1.321V72.27z M257.388,104.88c-1.333,1.231-2.873,2.215-4.551,2.907 c-1.697,0.699-3.518,1.055-5.355,1.045c-2.1,0-4.082-0.383-5.951-1.149c-1.826-0.738-3.496-1.818-4.918-3.182 c-1.417-1.366-2.557-2.993-3.355-4.792c-0.828-1.838-1.24-3.838-1.24-5.998c0-1.348,0.164-2.654,0.494-3.918 c0.318-1.236,0.789-2.43,1.401-3.551c0.605-1.103,1.347-2.125,2.206-3.045c0.857-0.92,1.835-1.721,2.907-2.379 c1.091-0.666,2.265-1.185,3.493-1.539c1.291-0.373,2.63-0.559,3.975-0.552c1.271,0,2.505,0.169,3.7,0.507 c1.194,0.336,2.317,0.812,3.366,1.424c1.051,0.612,2.011,1.349,2.885,2.207c0.861,0.844,1.617,1.789,2.252,2.814 c0.629,1.019,1.119,2.115,1.46,3.264c0.344,1.156,0.517,2.348,0.517,3.572c0,0.797-0.012,1.448-0.035,1.954 c-0.022,0.505-0.142,0.908-0.355,1.206c-0.215,0.3-0.57,0.506-1.068,0.62c-0.498,0.116-1.23,0.173-2.195,0.173h-16.545 c0.152,0.98,0.463,1.8,0.93,2.46c0.433,0.624,0.982,1.159,1.619,1.573c0.613,0.391,1.265,0.67,1.955,0.84 c0.639,0.162,1.294,0.246,1.953,0.252c0.551,0,1.117-0.059,1.699-0.172c0.574-0.113,1.139-0.267,1.69-0.46 c0.516-0.18,1.015-0.403,1.493-0.667c0.451-0.252,0.815-0.518,1.092-0.792c0.244-0.2,0.456-0.349,0.632-0.449 s0.364-0.149,0.563-0.149s0.401,0.07,0.609,0.207c0.252,0.177,0.486,0.377,0.7,0.598l2.437,2.758 c0.168,0.199,0.275,0.38,0.321,0.54c0.046,0.161,0.069,0.325,0.069,0.494c0,0.307-0.085,0.571-0.253,0.793 c-0.17,0.224-0.372,0.421-0.599,0.586H257.388z M246.333,85.736c-0.598,0-1.176,0.119-1.734,0.356 c-0.568,0.242-1.098,0.563-1.576,0.954c-0.489,0.398-0.93,0.85-1.32,1.355c-0.373,0.478-0.693,0.994-0.954,1.541h11.743 c-0.309-0.576-0.657-1.13-1.045-1.656c-0.369-0.498-0.802-0.946-1.287-1.332c-0.496-0.391-1.057-0.693-1.655-0.896 C247.884,85.844,247.16,85.736,246.333,85.736z"/></g></svg>