<svg xmlns="http://www.w3.org/2000/svg" xmlns:xlink="http://www.w3.org/1999/xlink" id="Layer_1" width="240" height="39" x="0" y="0" enable-background="new 0 0 240 39" version="1.1" viewBox="0 0 240 39" xml:space="preserve"><switch><g><g><path fill="#FFF" d="M28.371,1.239c-7.725-0.004-15.785,1.735-23.92,3.993C3.418,5.439,2.41,6.115,1.877,6.951 c-0.49,0.789-0.668,1.58-0.821,2.408c-0.79,4.428-0.694,8.775-0.53,13.594c0.036,1.104,0.2,2.41,0.715,3.205 c0.538,0.803,1.46,1.313,2.561,1.48c1.407,0.207,2.818,0.381,4.232,0.525l-0.312,8.697c-0.048,0.691,0.29,1.268,0.71,1.598 c0.376,0.287,0.795,0.414,1.225,0.445c0.86,0.064,1.869-0.303,2.37-1.256c2.195-4.225,3.572-6.09,6.317-8.896 c7.158,0.176,13.407-0.221,20.482-0.744c2.501-0.064,4.218-2.109,4.672-3.744c1.357-4.23,1.568-9.455,1.712-14.736 c0.061-2.092-0.665-4.148-1.95-5.234c-1.222-0.99-2.702-1.35-4.058-1.717C35.436,1.724,31.667,1.265,28.371,1.239z M38.661,4.549 c1.358,0.369,2.555,0.725,3.31,1.336c1.26,1.34,1.218,2.23,1.2,3.676c-0.142,5.123-0.388,10.094-1.544,13.859 c-0.498,1.406-1.366,2.406-3.006,2.557c-7.208,0.533-13.462,0.945-20.707,0.738c-0.285-0.008-0.561,0.102-0.763,0.303 c-3.044,3.074-4.601,5.211-6.921,9.676c-0.054,0.102-0.171,0.164-0.315,0.176c-0.097-0.006-0.136-0.08-0.142-0.148l0.314-9.432 c0.019-0.51-0.401-0.996-0.907-1.051c-1.692-0.162-3.379-0.367-5.06-0.619c-0.726-0.111-0.994-0.311-1.193-0.607 c-0.346-0.824-0.338-1.334-0.365-2.127C2.4,18.109,2.32,13.938,3.053,9.785C3.121,9.17,3.351,8.543,3.595,8.018 C4,7.385,4.618,7.293,5.239,7.121c7.956-2.197,15.74-3.84,23.068-3.846C31.899,3.406,35.671,3.766,38.661,4.549L38.661,4.549z M11.182,12.639c-1.096,1.313-0.987,3.096-0.14,4.289c0.442,0.625,1.132,1.129,1.972,1.242c1.091,0.09,1.783-0.352,2.53-0.859 c1.353-1.176,1.49-3.229,0.461-4.709c-0.524-0.756-1.362-1.209-2.218-1.24c-1.172,0.012-1.968,0.535-2.605,1.275V12.639z M23.038,11.566c-1.092,0.035-1.975,0.791-2.514,1.607c-0.617,0.934-0.977,2.102-0.478,3.246c0.96,2.203,4.277,2.176,5.6-0.063 c0.61-1.033,0.454-2.205,0-3.057c-0.452-0.85-1.136-1.543-2.131-1.701C23.358,11.572,23.198,11.563,23.038,11.566z M32.663,11.773c-0.34-0.008-0.69,0.023-1.018,0.111c-1.312,0.35-2.429,1.703-2.26,3.438c0.086,0.871,0.487,1.721,1.21,2.307 s1.773,0.848,2.88,0.621c1.272-0.26,2.06-1.285,2.323-2.275s0.197-1.998-0.414-2.816C34.74,12.301,33.736,11.791,32.663,11.773 L32.663,11.773z M13.698,13.396c0.245,0.002,0.438,0.08,0.637,0.365c0.445,0.643,0.321,1.615-0.128,2.006 c-0.447,0.391-0.726,0.424-0.922,0.398c-0.196-0.027-0.395-0.162-0.573-0.414c-0.34-0.48-0.44-1.256,0.007-1.811 C12.958,13.625,13.395,13.428,13.698,13.396L13.698,13.396z M23.181,13.619c0.038,0.006,0.464,0.254,0.668,0.637 c0.204,0.383,0.242,0.738,0.048,1.066c-0.577,0.975-1.804,0.711-1.99,0.287c-0.07-0.162-0.017-0.814,0.32-1.32 C22.563,13.779,22.984,13.588,23.181,13.619L23.181,13.619z M33.745,14.367c0.062,0.084,0.213,0.641,0.096,1.082 c-0.118,0.443-0.31,0.715-0.78,0.811c-0.602,0.125-0.94,0-1.193-0.207c-0.254-0.203-0.425-0.551-0.462-0.922 c-0.09-0.92,0.24-1.133,0.764-1.273C32.78,13.707,33.47,13.969,33.745,14.367z"/><path fill="#FFF" d="M58.014,5.355c0.016-0.26,0.111-0.494,0.287-0.701c0.174-0.205,0.432-0.32,0.701-0.311h6.826 c0.23,0,0.467,0.098,0.712,0.287c0.233,0.168,0.371,0.438,0.368,0.725v10.893h11.421V5.355c0-0.275,0.096-0.514,0.287-0.711 c0.192-0.201,0.44-0.301,0.747-0.301h6.734c0.306,0,0.574,0.076,0.804,0.23s0.345,0.398,0.345,0.736v32.148 c0,0.338-0.1,0.59-0.3,0.758c-0.198,0.17-0.459,0.254-0.78,0.254h-6.803c-0.306,0-0.555-0.084-0.747-0.254 c-0.191-0.168-0.287-0.42-0.287-0.758V24.406H66.908v13.053c0,0.322-0.104,0.57-0.31,0.748c-0.207,0.176-0.487,0.264-0.84,0.264 h-6.756c-0.643,0-0.972-0.299-0.988-0.896V5.355z M120.889,38.08c-0.198,0.168-0.409,0.275-0.631,0.322 c-0.208,0.045-0.42,0.068-0.631,0.068h-3.471c-0.275,0-0.514-0.049-0.713-0.148c-0.2-0.102-0.368-0.234-0.506-0.402 c-0.142-0.176-0.258-0.369-0.344-0.576c-0.094-0.215-0.17-0.438-0.23-0.666l-0.712-2.941c-0.229,0.475-0.563,1.016-1,1.621 c-0.473,0.641-1.034,1.213-1.666,1.699c-0.674,0.529-1.479,0.975-2.413,1.334c-0.936,0.359-2.007,0.539-3.218,0.539 c-1.746,0-3.332-0.336-4.758-1.01c-1.395-0.652-2.636-1.592-3.642-2.758c-1.003-1.164-1.781-2.525-2.332-4.08 c-0.552-1.555-0.828-3.213-0.828-4.975V11.055c0-0.582,0.127-1.021,0.38-1.32c0.252-0.299,0.654-0.449,1.206-0.449h5.308 c0.66,0,1.111,0.111,1.355,0.334c0.245,0.221,0.368,0.654,0.368,1.297v14.961c0,0.66,0.15,1.283,0.448,1.873 c0.299,0.59,0.693,1.111,1.184,1.563s1.045,0.809,1.666,1.068c0.62,0.262,1.252,0.391,1.896,0.391 c0.551,0,1.122-0.129,1.712-0.391c0.594-0.262,1.144-0.615,1.631-1.045c0.498-0.436,0.908-0.951,1.229-1.541 c0.322-0.59,0.482-1.213,0.482-1.871V10.986c0-0.26,0.051-0.521,0.15-0.781s0.249-0.461,0.447-0.598 c0.199-0.123,0.388-0.207,0.563-0.252c0.177-0.047,0.38-0.07,0.608-0.07h5.195c0.657,0,1.133,0.162,1.424,0.482 c0.291,0.322,0.437,0.752,0.437,1.287v25.717c0,0.289-0.065,0.559-0.194,0.803c-0.131,0.246-0.311,0.438-0.541,0.574 L120.889,38.08L120.889,38.08z M147.57,34.908c-0.414,0.414-0.87,0.859-1.367,1.334c-0.498,0.475-1.046,0.92-1.643,1.332 c-0.602,0.416-1.249,0.76-1.93,1.023c-0.713,0.271-1.469,0.408-2.23,0.402c-2.083,0-4.002-0.391-5.758-1.172 c-1.71-0.752-3.25-1.842-4.526-3.207c-1.264-1.355-2.252-2.953-2.964-4.791c-0.713-1.838-1.068-3.814-1.068-5.93 c0-2.129,0.355-4.109,1.068-5.939c0.712-1.83,1.7-3.424,2.964-4.781c1.274-1.363,2.815-2.449,4.526-3.193 c1.756-0.773,3.675-1.16,5.758-1.16c0.843,0,1.613,0.123,2.311,0.367c0.672,0.232,1.313,0.549,1.906,0.941 c0.575,0.385,1.104,0.816,1.586,1.299s0.938,0.953,1.367,1.414V2.344c0-0.489,0.15-0.901,0.447-1.239 c0.3-0.338,0.748-0.506,1.346-0.506h5.17c0.2,0,0.41,0.043,0.633,0.127c0.221,0.084,0.424,0.203,0.609,0.357 c0.184,0.152,0.332,0.336,0.447,0.551s0.173,0.451,0.173,0.71v34.357c0,1.18-0.62,1.77-1.862,1.77h-4.504 c-0.307,0-0.544-0.039-0.712-0.115c-0.167-0.074-0.313-0.189-0.427-0.332c-0.127-0.17-0.231-0.355-0.309-0.553 c-0.109-0.258-0.224-0.516-0.345-0.77L147.57,34.908L147.57,34.908z M134.356,23.9c-0.008,0.967,0.151,1.928,0.471,2.84 c0.313,0.879,0.763,1.643,1.345,2.285c0.589,0.648,1.305,1.168,2.103,1.527c0.819,0.377,1.728,0.564,2.724,0.564 c0.98,0,1.903-0.176,2.77-0.529c0.841-0.336,1.609-0.832,2.263-1.459c0.649-0.629,1.176-1.373,1.552-2.193 c0.391-0.844,0.609-1.748,0.655-2.713V23.9c0.003-0.961-0.185-1.914-0.552-2.803c-0.356-0.871-0.875-1.666-1.528-2.344 c-0.655-0.678-1.436-1.219-2.298-1.598c-0.902-0.395-1.877-0.594-2.861-0.586c-0.996,0-1.904,0.195-2.724,0.586 c-0.82,0.391-1.521,0.924-2.103,1.598c-0.592,0.689-1.047,1.484-1.345,2.344C134.512,21.998,134.353,22.947,134.356,23.9 L134.356,23.9z M183.076,34.908c-0.414,0.414-0.87,0.859-1.367,1.334c-0.498,0.475-1.047,0.92-1.644,1.332 c-0.601,0.416-1.249,0.76-1.931,1.023c-0.711,0.271-1.468,0.408-2.229,0.402c-2.083,0-4.002-0.391-5.756-1.172 c-1.712-0.752-3.252-1.842-4.528-3.207c-1.263-1.355-2.252-2.953-2.964-4.791s-1.069-3.814-1.069-5.93 c0-2.129,0.357-4.109,1.069-5.939s1.7-3.424,2.964-4.781c1.275-1.363,2.816-2.449,4.528-3.193c1.754-0.773,3.673-1.16,5.756-1.16 c0.843,0,1.613,0.123,2.31,0.367c0.673,0.232,1.313,0.549,1.907,0.941c0.575,0.385,1.103,0.816,1.587,1.299 c0.482,0.482,0.938,0.953,1.366,1.414V2.344c0-0.489,0.149-0.901,0.448-1.239c0.3-0.338,0.747-0.506,1.345-0.506h5.17 c0.2,0,0.41,0.043,0.632,0.127c0.224,0.084,0.426,0.203,0.61,0.357c0.183,0.152,0.333,0.336,0.448,0.551 c0.113,0.215,0.172,0.451,0.172,0.71v34.357c0,1.18-0.62,1.77-1.862,1.77h-4.504c-0.306,0-0.544-0.039-0.712-0.115 c-0.166-0.074-0.313-0.189-0.425-0.332c-0.128-0.17-0.232-0.355-0.31-0.553c-0.109-0.258-0.225-0.516-0.346-0.77L183.076,34.908 L183.076,34.908z M169.861,23.9c-0.008,0.967,0.152,1.928,0.471,2.84c0.315,0.879,0.764,1.643,1.346,2.285 c0.588,0.648,1.305,1.168,2.103,1.527c0.819,0.377,1.728,0.564,2.724,0.564c0.979,0,1.902-0.176,2.769-0.529 c0.841-0.336,1.61-0.832,2.264-1.459c0.649-0.629,1.175-1.373,1.55-2.193c0.392-0.844,0.61-1.748,0.656-2.713V23.9 c0.004-0.961-0.184-1.914-0.552-2.803c-0.356-0.871-0.875-1.666-1.528-2.344c-0.654-0.678-1.436-1.219-2.298-1.598 c-0.901-0.395-1.876-0.594-2.86-0.586c-0.996,0-1.904,0.195-2.724,0.586s-1.521,0.924-2.103,1.598 c-0.592,0.689-1.049,1.484-1.346,2.344C170.017,21.998,169.857,22.947,169.861,23.9L169.861,23.9z M198.014,2.367 c0-0.489,0.123-0.901,0.367-1.239c0.246-0.338,0.668-0.506,1.265-0.506h5.63c0.154,0,0.314,0.043,0.482,0.127 c0.178,0.09,0.336,0.211,0.472,0.355c0.146,0.154,0.268,0.338,0.368,0.551c0.1,0.215,0.149,0.452,0.149,0.712v34.334 c0,0.582-0.165,1.023-0.495,1.322c-0.328,0.299-0.754,0.447-1.274,0.447h-5.332c-0.597,0-1.019-0.15-1.265-0.447 c-0.244-0.299-0.367-0.74-0.367-1.322V2.367z M236.715,34.979c-1.333,1.23-2.873,2.215-4.551,2.906 c-1.697,0.699-3.518,1.055-5.355,1.045c-2.1,0-4.082-0.383-5.951-1.148c-1.826-0.738-3.496-1.818-4.918-3.182 c-1.417-1.367-2.557-2.994-3.355-4.793c-0.828-1.838-1.24-3.838-1.24-5.998c0-1.348,0.164-2.654,0.494-3.918 c0.318-1.236,0.789-2.43,1.401-3.551c0.605-1.102,1.347-2.125,2.206-3.045c0.857-0.92,1.835-1.721,2.907-2.379 c1.091-0.666,2.265-1.184,3.493-1.539c1.291-0.373,2.63-0.559,3.975-0.551c1.271,0,2.505,0.168,3.7,0.506 c1.194,0.336,2.317,0.813,3.366,1.424c1.051,0.613,2.011,1.35,2.885,2.207c0.861,0.844,1.617,1.789,2.252,2.814 c0.629,1.02,1.119,2.115,1.46,3.264c0.344,1.156,0.517,2.348,0.517,3.572c0,0.797-0.012,1.449-0.035,1.955 c-0.022,0.504-0.142,0.908-0.355,1.205c-0.215,0.301-0.57,0.506-1.068,0.621s-1.23,0.172-2.195,0.172h-16.545 c0.152,0.98,0.463,1.801,0.93,2.461c0.433,0.623,0.982,1.158,1.619,1.572c0.613,0.391,1.265,0.67,1.955,0.84 c0.639,0.162,1.294,0.246,1.953,0.252c0.551,0,1.117-0.059,1.699-0.172c0.574-0.113,1.139-0.266,1.69-0.459 c0.516-0.18,1.015-0.404,1.493-0.668c0.451-0.252,0.815-0.518,1.092-0.791c0.244-0.201,0.456-0.35,0.632-0.449 c0.176-0.102,0.364-0.15,0.563-0.15s0.401,0.07,0.609,0.207c0.252,0.178,0.486,0.377,0.7,0.598l2.437,2.758 c0.168,0.199,0.275,0.381,0.321,0.541s0.069,0.324,0.069,0.494c0,0.307-0.085,0.57-0.253,0.793 c-0.17,0.223-0.372,0.42-0.599,0.586H236.715z M225.66,15.834c-0.598,0-1.176,0.119-1.734,0.357 c-0.568,0.242-1.098,0.563-1.576,0.953c-0.489,0.398-0.93,0.85-1.32,1.355c-0.373,0.479-0.693,0.994-0.954,1.541h11.743 c-0.309-0.576-0.657-1.129-1.045-1.656c-0.369-0.498-0.802-0.945-1.287-1.332c-0.496-0.391-1.057-0.693-1.655-0.896 C227.211,15.941,226.487,15.834,225.66,15.834z"/></g></g></switch></svg>