<?xml version="1.0" encoding="utf-8"?>
<!-- Generator: Adobe Illustrator 16.0.3, SVG Export Plug-In . SVG Version: 6.00 Build 0)  -->
<!DOCTYPE svg PUBLIC "-//W3C//DTD SVG 1.1//EN" "http://www.w3.org/Graphics/SVG/1.1/DTD/svg11.dtd">
<svg version="1.1" id="Layer_1" xmlns="http://www.w3.org/2000/svg" xmlns:xlink="http://www.w3.org/1999/xlink" x="0px" y="0px"
	 width="240px" height="39px" viewBox="0 0 240 39" enable-background="new 0 0 240 39" xml:space="preserve">
<g>
	<path fill="#FF52C1" d="M27.967,0.879c-7.725-0.004-15.785,1.736-23.92,3.993C3.014,5.08,2.006,5.756,1.473,6.592
		C0.983,7.38,0.805,8.171,0.652,9c-0.79,4.428-0.694,8.776-0.53,13.594c0.036,1.104,0.2,2.41,0.715,3.205
		c0.538,0.803,1.46,1.313,2.561,1.48c1.407,0.206,2.818,0.381,4.232,0.525l-0.312,8.697c-0.048,0.691,0.29,1.268,0.71,1.598
		c0.376,0.286,0.795,0.414,1.225,0.445c0.86,0.064,1.869-0.303,2.37-1.257c2.195-4.224,3.572-6.089,6.317-8.896
		c7.158,0.176,13.407-0.222,20.482-0.744c2.501-0.065,4.218-2.11,4.672-3.744c1.357-4.231,1.568-9.455,1.712-14.736
		c0.061-2.093-0.665-4.148-1.95-5.234c-1.222-0.991-2.702-1.35-4.058-1.718C35.031,1.363,31.263,0.905,27.967,0.879z M38.257,4.189
		c1.358,0.369,2.555,0.724,3.31,1.337c1.26,1.339,1.218,2.23,1.2,3.675c-0.142,5.122-0.388,10.093-1.544,13.859
		c-0.498,1.405-1.366,2.405-3.006,2.557c-7.208,0.533-13.462,0.945-20.707,0.738c-0.285-0.009-0.561,0.101-0.763,0.303
		c-3.044,3.074-4.601,5.21-6.921,9.676c-0.054,0.102-0.171,0.164-0.315,0.175c-0.097-0.005-0.136-0.079-0.142-0.147l0.314-9.432
		c0.019-0.51-0.401-0.996-0.907-1.051c-1.692-0.162-3.379-0.368-5.06-0.62c-0.726-0.11-0.994-0.31-1.193-0.606
		c-0.346-0.824-0.338-1.334-0.365-2.127C1.996,17.75,1.916,13.577,2.649,9.425c0.068-0.614,0.298-1.242,0.542-1.767
		c0.404-0.632,1.023-0.725,1.644-0.897c7.956-2.197,15.74-3.84,23.068-3.845C31.495,3.046,35.267,3.406,38.257,4.189L38.257,4.189z
		 M10.778,12.279c-1.096,1.313-0.987,3.096-0.14,4.29c0.442,0.625,1.132,1.128,1.972,1.242c1.091,0.09,1.783-0.352,2.53-0.86
		c1.353-1.176,1.49-3.228,0.461-4.71c-0.524-0.755-1.362-1.208-2.218-1.24C12.211,11.013,11.415,11.536,10.778,12.279L10.778,12.279
		z M22.634,11.207c-1.092,0.035-1.975,0.791-2.514,1.607c-0.617,0.933-0.977,2.101-0.478,3.246c0.96,2.203,4.277,2.176,5.6-0.063
		c0.61-1.032,0.454-2.205,0-3.056c-0.452-0.85-1.136-1.543-2.131-1.702C22.954,11.213,22.793,11.202,22.634,11.207z M32.259,11.414
		c-0.34-0.008-0.69,0.024-1.018,0.111c-1.312,0.35-2.429,1.704-2.26,3.437c0.086,0.872,0.487,1.722,1.21,2.308
		c0.723,0.585,1.773,0.847,2.88,0.62c1.272-0.26,2.06-1.285,2.323-2.275c0.263-0.99,0.197-1.999-0.414-2.817
		C34.336,11.941,33.332,11.431,32.259,11.414L32.259,11.414z M13.294,13.037c0.245,0.002,0.438,0.08,0.637,0.366
		c0.445,0.642,0.321,1.615-0.128,2.005c-0.447,0.39-0.726,0.424-0.922,0.398c-0.196-0.027-0.395-0.162-0.573-0.414
		c-0.34-0.48-0.44-1.256,0.007-1.81C12.553,13.266,12.99,13.069,13.294,13.037L13.294,13.037z M22.777,13.26
		c0.038,0.006,0.464,0.253,0.668,0.636c0.204,0.383,0.242,0.739,0.048,1.066c-0.577,0.976-1.804,0.712-1.99,0.287
		c-0.07-0.162-0.017-0.813,0.32-1.32C22.158,13.42,22.58,13.229,22.777,13.26L22.777,13.26z M33.341,14.008
		c0.062,0.083,0.213,0.64,0.096,1.082c-0.118,0.442-0.31,0.715-0.78,0.811c-0.602,0.124-0.94,0-1.193-0.207
		c-0.254-0.205-0.425-0.552-0.462-0.923c-0.09-0.92,0.24-1.133,0.764-1.273C32.376,13.348,33.066,13.61,33.341,14.008z"/>
	<path fill="#00252E" d="M57.61,4.996c0.016-0.26,0.111-0.494,0.287-0.701c0.174-0.206,0.432-0.32,0.701-0.31h6.826
		c0.23,0,0.467,0.096,0.712,0.287c0.233,0.167,0.371,0.437,0.368,0.724v10.893h11.421V4.996c0-0.276,0.096-0.513,0.287-0.712
		c0.192-0.2,0.44-0.3,0.747-0.3h6.734c0.306,0,0.574,0.077,0.804,0.23c0.23,0.154,0.345,0.399,0.345,0.736V37.1
		c0,0.338-0.1,0.59-0.3,0.758c-0.198,0.17-0.459,0.254-0.78,0.254h-6.803c-0.306,0-0.555-0.084-0.747-0.254
		c-0.191-0.168-0.287-0.42-0.287-0.758V24.047H66.504V37.1c0,0.322-0.104,0.57-0.31,0.748c-0.207,0.176-0.487,0.264-0.84,0.264
		h-6.756c-0.643,0-0.972-0.299-0.988-0.896V4.996z M120.485,37.721c-0.199,0.168-0.41,0.275-0.632,0.321
		c-0.208,0.045-0.419,0.068-0.631,0.069h-3.47c-0.276,0-0.514-0.049-0.713-0.149c-0.2-0.101-0.368-0.233-0.506-0.401
		c-0.142-0.176-0.257-0.369-0.344-0.576c-0.093-0.215-0.169-0.438-0.23-0.666l-0.712-2.941c-0.23,0.475-0.563,1.016-1,1.62
		c-0.473,0.642-1.034,1.214-1.666,1.7c-0.674,0.529-1.479,0.974-2.413,1.334c-0.935,0.359-2.007,0.539-3.218,0.539
		c-1.746,0-3.332-0.336-4.757-1.01c-1.395-0.652-2.636-1.592-3.642-2.759c-1.003-1.163-1.781-2.524-2.332-4.079
		c-0.552-1.555-0.828-3.214-0.828-4.975V10.695c0-0.582,0.127-1.022,0.38-1.321c0.252-0.299,0.654-0.448,1.206-0.448h5.308
		c0.66,0,1.111,0.11,1.356,0.333c0.245,0.222,0.368,0.655,0.368,1.298v14.96c0,0.659,0.15,1.283,0.448,1.873
		c0.299,0.59,0.693,1.11,1.184,1.563c0.49,0.451,1.045,0.809,1.666,1.068c0.62,0.261,1.252,0.391,1.896,0.391
		c0.551,0,1.122-0.13,1.712-0.391c0.594-0.263,1.144-0.615,1.631-1.045c0.498-0.437,0.908-0.951,1.23-1.541
		c0.322-0.59,0.482-1.213,0.482-1.871V10.626c0-0.26,0.05-0.52,0.15-0.781c0.1-0.26,0.249-0.46,0.448-0.598
		c0.199-0.122,0.387-0.206,0.563-0.252c0.176-0.046,0.38-0.07,0.609-0.07h5.194c0.658,0,1.133,0.162,1.424,0.483
		c0.291,0.322,0.437,0.751,0.437,1.287v25.716c0,0.29-0.065,0.56-0.194,0.804c-0.131,0.245-0.311,0.438-0.541,0.574L120.485,37.721
		L120.485,37.721z M147.166,34.549c-0.414,0.414-0.87,0.858-1.367,1.333c-0.498,0.476-1.046,0.92-1.643,1.333
		c-0.602,0.416-1.249,0.76-1.93,1.023c-0.713,0.271-1.469,0.408-2.23,0.402c-2.083,0-4.002-0.391-5.758-1.173
		c-1.71-0.751-3.25-1.841-4.526-3.206c-1.264-1.355-2.252-2.953-2.964-4.791c-0.713-1.839-1.068-3.814-1.068-5.93
		c0-2.13,0.355-4.11,1.068-5.94c0.712-1.83,1.7-3.424,2.964-4.78c1.274-1.363,2.815-2.45,4.526-3.194
		c1.756-0.774,3.675-1.161,5.758-1.161c0.843,0,1.613,0.123,2.311,0.368c0.672,0.233,1.313,0.549,1.906,0.942
		c0.575,0.383,1.104,0.816,1.586,1.298c0.482,0.483,0.938,0.954,1.367,1.414V1.985c0-0.49,0.15-0.903,0.447-1.24
		c0.3-0.338,0.748-0.506,1.346-0.506h5.17c0.2,0,0.41,0.042,0.633,0.126c0.221,0.085,0.424,0.203,0.609,0.357
		c0.184,0.153,0.332,0.337,0.447,0.551c0.115,0.215,0.173,0.452,0.173,0.712v34.357c0,1.18-0.62,1.77-1.862,1.77h-4.504
		c-0.307,0-0.544-0.039-0.712-0.115c-0.167-0.075-0.313-0.189-0.427-0.333c-0.127-0.169-0.231-0.354-0.309-0.552
		c-0.109-0.259-0.224-0.516-0.345-0.77L147.166,34.549L147.166,34.549z M133.952,23.541c-0.008,0.967,0.151,1.927,0.471,2.839
		c0.313,0.88,0.763,1.644,1.345,2.286c0.589,0.648,1.305,1.168,2.103,1.527c0.819,0.377,1.728,0.563,2.724,0.563
		c0.98,0,1.903-0.176,2.77-0.528c0.841-0.336,1.609-0.832,2.263-1.459c0.649-0.629,1.176-1.373,1.552-2.194
		c0.391-0.843,0.609-1.747,0.655-2.712v-0.322c0.003-0.962-0.185-1.914-0.552-2.803c-0.356-0.872-0.875-1.667-1.528-2.344
		c-0.655-0.677-1.436-1.219-2.298-1.597c-0.902-0.395-1.877-0.595-2.861-0.586c-0.996,0-1.904,0.195-2.724,0.586
		c-0.82,0.39-1.521,0.923-2.103,1.597c-0.592,0.69-1.047,1.485-1.345,2.344C134.107,21.639,133.948,22.587,133.952,23.541
		L133.952,23.541z M182.672,34.549c-0.414,0.414-0.87,0.858-1.367,1.333c-0.498,0.476-1.047,0.92-1.644,1.333
		c-0.601,0.416-1.249,0.76-1.931,1.023c-0.711,0.271-1.468,0.408-2.229,0.402c-2.083,0-4.002-0.391-5.756-1.173
		c-1.712-0.751-3.252-1.841-4.528-3.206c-1.263-1.355-2.252-2.953-2.964-4.791c-0.712-1.839-1.069-3.814-1.069-5.93
		c0-2.13,0.357-4.11,1.069-5.94s1.7-3.424,2.964-4.78c1.275-1.363,2.816-2.45,4.528-3.194c1.754-0.774,3.673-1.161,5.756-1.161
		c0.843,0,1.613,0.123,2.31,0.368c0.673,0.233,1.313,0.549,1.907,0.942c0.575,0.383,1.103,0.816,1.587,1.298
		c0.482,0.483,0.938,0.954,1.366,1.414V1.985c0-0.49,0.149-0.903,0.448-1.24c0.3-0.338,0.747-0.506,1.345-0.506h5.17
		c0.2,0,0.41,0.042,0.632,0.126c0.224,0.085,0.426,0.203,0.61,0.357c0.183,0.153,0.333,0.337,0.448,0.551
		c0.113,0.215,0.172,0.452,0.172,0.712v34.357c0,1.18-0.62,1.77-1.862,1.77h-4.504c-0.306,0-0.544-0.039-0.712-0.115
		c-0.166-0.075-0.313-0.189-0.425-0.333c-0.128-0.169-0.232-0.354-0.31-0.552c-0.109-0.259-0.225-0.516-0.346-0.77L182.672,34.549
		L182.672,34.549z M169.457,23.541c-0.008,0.967,0.152,1.927,0.471,2.839c0.315,0.88,0.764,1.644,1.346,2.286
		c0.588,0.648,1.305,1.168,2.103,1.527c0.819,0.377,1.728,0.563,2.724,0.563c0.979,0,1.902-0.176,2.769-0.528
		c0.841-0.336,1.61-0.832,2.264-1.459c0.649-0.629,1.175-1.373,1.55-2.194c0.392-0.843,0.61-1.747,0.656-2.712v-0.322
		c0.004-0.962-0.184-1.914-0.552-2.803c-0.356-0.872-0.875-1.667-1.528-2.344c-0.654-0.677-1.436-1.219-2.298-1.597
		c-0.901-0.395-1.876-0.595-2.86-0.586c-0.996,0-1.904,0.195-2.724,0.586c-0.819,0.39-1.521,0.923-2.103,1.597
		c-0.592,0.69-1.049,1.485-1.346,2.344C169.612,21.639,169.453,22.587,169.457,23.541L169.457,23.541z M197.609,2.008
		c0-0.49,0.123-0.903,0.367-1.24c0.246-0.338,0.668-0.506,1.265-0.506h5.63c0.154,0,0.314,0.042,0.482,0.126
		c0.178,0.09,0.336,0.211,0.472,0.357c0.146,0.153,0.268,0.337,0.368,0.551c0.1,0.215,0.149,0.452,0.149,0.712v34.334
		c0,0.582-0.165,1.022-0.495,1.321c-0.328,0.299-0.754,0.448-1.274,0.448h-5.332c-0.597,0-1.019-0.15-1.265-0.448
		c-0.244-0.299-0.367-0.74-0.367-1.321V2.008z M236.311,34.618c-1.333,1.231-2.873,2.215-4.551,2.907
		c-1.697,0.699-3.518,1.055-5.355,1.045c-2.1,0-4.082-0.383-5.951-1.149c-1.826-0.738-3.496-1.818-4.918-3.182
		c-1.417-1.366-2.557-2.993-3.355-4.792c-0.828-1.838-1.24-3.838-1.24-5.998c0-1.348,0.164-2.654,0.494-3.918
		c0.318-1.237,0.789-2.429,1.401-3.55c0.605-1.103,1.347-2.126,2.206-3.045c0.857-0.92,1.835-1.721,2.907-2.379
		c1.091-0.667,2.265-1.185,3.493-1.54c1.291-0.373,2.63-0.558,3.975-0.551c1.271,0,2.505,0.169,3.7,0.506
		c1.194,0.337,2.317,0.812,3.366,1.424c1.051,0.613,2.011,1.349,2.885,2.207c0.861,0.844,1.617,1.789,2.252,2.815
		c0.629,1.019,1.119,2.116,1.46,3.263c0.344,1.157,0.517,2.348,0.517,3.573c0,0.797-0.012,1.448-0.035,1.954
		c-0.022,0.505-0.142,0.908-0.355,1.206c-0.215,0.3-0.57,0.506-1.068,0.62c-0.498,0.116-1.23,0.173-2.195,0.173h-16.545
		c0.152,0.98,0.463,1.8,0.93,2.46c0.433,0.624,0.982,1.159,1.619,1.573c0.613,0.391,1.265,0.67,1.955,0.84
		c0.639,0.162,1.294,0.246,1.953,0.252c0.551,0,1.117-0.059,1.699-0.172c0.574-0.113,1.139-0.267,1.69-0.46
		c0.516-0.18,1.015-0.403,1.493-0.667c0.451-0.252,0.815-0.518,1.092-0.792c0.244-0.2,0.456-0.349,0.632-0.449
		s0.364-0.149,0.563-0.149s0.401,0.07,0.609,0.207c0.252,0.177,0.486,0.377,0.7,0.598l2.437,2.758
		c0.168,0.199,0.275,0.38,0.321,0.54c0.046,0.161,0.069,0.325,0.069,0.494c0,0.307-0.085,0.571-0.253,0.793
		c-0.17,0.224-0.372,0.421-0.599,0.586H236.311z M225.256,15.475c-0.598,0-1.176,0.119-1.734,0.356
		c-0.568,0.242-1.098,0.563-1.576,0.954c-0.489,0.398-0.93,0.85-1.32,1.356c-0.373,0.477-0.693,0.993-0.954,1.54h11.743
		c-0.309-0.576-0.657-1.129-1.045-1.655c-0.369-0.499-0.802-0.947-1.287-1.333c-0.496-0.391-1.057-0.693-1.655-0.896
		C226.807,15.582,226.083,15.475,225.256,15.475z"/>
</g>
</svg>
